<svg width="62" height="93" viewBox="0 0 62 93" fill="none" xmlns="http://www.w3.org/2000/svg">
<path d="M52.3569 23.9082C52.0479 23.3522 51.4299 23.0502 50.7949 23.1562C50.1669 23.2622 49.6749 23.7532 49.5659 24.3802C48.9479 27.9672 47.0109 36.7852 44.3899 42.1002C44.1569 40.5142 43.9579 38.8362 43.7629 37.1892C43.4779 34.7722 43.2079 32.4882 42.8409 30.5692C39.8299 13.5852 32.6669 1.32116 32.3639 0.807162C32.0349 0.251162 31.3869 -0.0318376 30.7569 0.103162C30.1259 0.239162 29.6519 0.764162 29.5819 1.40616C27.5519 19.9412 22.0519 37.7762 18.7809 45.1222C16.9319 31.8722 21.6449 15.1042 21.6979 14.9202C21.8929 14.2372 21.5829 13.5122 20.9549 13.1812C20.3279 12.8512 19.5539 13.0032 19.1009 13.5502C18.9149 13.7752 14.4929 19.1332 10.0089 27.1072C3.94993 37.8812 0.87793 47.7832 0.87793 56.5382C0.87793 64.5842 2.62793 72.0712 5.56293 76.5892C10.6099 86.1602 20.4399 92.1042 31.2339 92.1042C42.2759 92.1042 52.5089 85.6702 57.3339 75.7052C59.8009 72.0332 61.2719 65.9032 61.2719 59.2692C61.2709 40.2262 52.7209 24.5662 52.3569 23.9082ZM54.7929 74.1062C54.7489 74.1692 54.7109 74.2362 54.6779 74.3052C50.3689 83.2952 41.1669 89.1042 31.2339 89.1042C21.5349 89.1042 12.7039 83.7502 8.18593 75.1322C8.16293 75.0892 8.13893 75.0462 8.11193 75.0062C5.46093 70.9632 3.87793 64.0602 3.87793 56.5382C3.87793 43.1112 11.9479 28.9972 17.1379 21.3092C15.6899 28.7422 14.1879 40.4982 16.6489 49.7572C16.7899 50.2872 17.2089 50.6972 17.7419 50.8282C18.2749 50.9612 18.8369 50.7872 19.2059 50.3822C22.1839 47.1192 29.0109 27.5322 31.9599 6.55616C34.3179 11.5092 37.9959 20.4162 39.8929 31.1122C40.2439 32.9462 40.5069 35.1782 40.7869 37.5412C41.1509 40.6252 41.5279 43.8142 42.1409 46.4452C42.2679 46.9902 42.6879 47.4192 43.2299 47.5572C43.7749 47.6942 44.3459 47.5212 44.7199 47.1042C48.0509 43.3812 50.4229 34.6692 51.6259 29.3222C54.1419 35.0842 58.2719 46.4922 58.2719 59.2682C58.2709 65.2882 56.9379 70.9742 54.7929 74.1062Z" fill="#EA0D0D"/>
</svg>
